<svg xmlns="http://www.w3.org/2000/svg" viewBox="0 0 319.29 86.99"><defs><style>.cls-1{fill:none;stroke:#000;stroke-miterlimit:10;stroke-width:1.19px;}</style></defs><g id="Capa_2" data-name="Capa 2"><g id="Capa_1-2" data-name="Capa 1"><path d="M313.71,18.48l1.41,2h-1.41l-1.35-1.91h-1.71v1.91h-1.2v-6H313a2,2,0,0,1,2.11,2A2,2,0,0,1,313.71,18.48Zm.29-1.9a1,1,0,0,0-1-1.11h-2.36v2.08h2.48A.89.89,0,0,0,314,16.58Z"/><circle class="cls-1" cx="312.29" cy="17.55" r="6.4"/><path d="M29,35a16.54,16.54,0,0,0-7.65-2,5.76,5.76,0,0,0-3.16.78A2.42,2.42,0,0,0,17,35.88,2.72,2.72,0,0,0,17.2,37a2,2,0,0,0,.86.82,7.12,7.12,0,0,0,2,.7q1.29.31,3.39.78,5.85,1.17,8.74,4.18A10.64,10.64,0,0,1,35,51.17a14,14,0,0,1-1.4,6.32,13.6,13.6,0,0,1-3.9,4.72,18.65,18.65,0,0,1-6,3,26.84,26.84,0,0,1-7.72,1,31.35,31.35,0,0,1-16-4.6l5.15-10q5.92,4.05,11.23,4a5.47,5.47,0,0,0,3.2-.86,2.56,2.56,0,0,0,1.25-2.18,3.64,3.64,0,0,0-.2-1.29,2.07,2.07,0,0,0-.82-.93A6.16,6.16,0,0,0,18,49.65c-.81-.24-1.86-.48-3.16-.74Q8.26,47.58,5.66,45A9.73,9.73,0,0,1,3,37.75a14.22,14.22,0,0,1,1.25-6,12.49,12.49,0,0,1,3.59-4.57,16.82,16.82,0,0,1,5.65-2.88,25,25,0,0,1,7.37-1,33.38,33.38,0,0,1,12.87,2.58Z"/><path d="M72.38,37.67A13.06,13.06,0,0,0,65,35.18a10,10,0,0,0-3.78.7,9.33,9.33,0,0,0-3.08,2,9.17,9.17,0,0,0-2.07,3,10.13,10.13,0,0,0-.74,3.94A9.91,9.91,0,0,0,56,48.71a9.42,9.42,0,0,0,2,3,8.85,8.85,0,0,0,3.08,2,10.36,10.36,0,0,0,3.82.7,11.62,11.62,0,0,0,7.41-2.73v12A25.06,25.06,0,0,1,62.48,66a23.57,23.57,0,0,1-8.31-1.48A20.9,20.9,0,0,1,42.43,53.63,20.18,20.18,0,0,1,40.64,45a21.61,21.61,0,0,1,1.71-8.7A21,21,0,0,1,47,29.52a21.24,21.24,0,0,1,7.06-4.44,23.85,23.85,0,0,1,8.78-1.6,21,21,0,0,1,9.51,2.18Z"/><path d="M111.3,24.73h14.2v40H111.3V60.29A14.79,14.79,0,0,1,99.06,66a20,20,0,0,1-8-1.6,19.31,19.31,0,0,1-6.4-4.49,20.57,20.57,0,0,1-4.25-6.78,23.1,23.1,0,0,1-1.52-8.5,22.58,22.58,0,0,1,1.48-8.16,21.09,21.09,0,0,1,4.13-6.74A19.24,19.24,0,0,1,98.9,23.48a16.28,16.28,0,0,1,12.4,5.22ZM93.52,44.62a9.2,9.2,0,0,0,.7,3.62,9.46,9.46,0,0,0,1.91,2.93A8.67,8.67,0,0,0,99,53.12a9.28,9.28,0,0,0,3.63.7,9.07,9.07,0,0,0,3.55-.7,8.63,8.63,0,0,0,2.88-1.95,9.94,9.94,0,0,0,2-2.89,8.31,8.31,0,0,0,.74-3.51,8.59,8.59,0,0,0-.74-3.55,9.83,9.83,0,0,0-2-2.92,8.63,8.63,0,0,0-2.88-1.95,9.07,9.07,0,0,0-3.55-.7,9.28,9.28,0,0,0-3.63.7,8.67,8.67,0,0,0-2.89,1.95,9.7,9.7,0,0,0-1.91,2.85A8.47,8.47,0,0,0,93.52,44.62Z"/><path d="M216.32,0V64.74H202.2V0Z"/><path d="M225.06,9.36a7.6,7.6,0,0,1,.62-3.08,8,8,0,0,1,1.72-2.54A8.19,8.19,0,0,1,229.93,2a7.84,7.84,0,0,1,6.16,0,8.35,8.35,0,0,1,2.54,1.71,8.18,8.18,0,0,1,1.71,2.54A7.61,7.61,0,0,1,241,9.36a7.61,7.61,0,0,1-.63,3.08A8.18,8.18,0,0,1,238.63,15a8,8,0,0,1-2.54,1.71,7.84,7.84,0,0,1-6.16,0A7.85,7.85,0,0,1,227.4,15a8,8,0,0,1-1.72-2.54A7.6,7.6,0,0,1,225.06,9.36Zm15.05,15.37v40H226v-40Z"/><path d="M280.67,24.73h14.19v40H280.67V60.29A14.82,14.82,0,0,1,268.42,66a20,20,0,0,1-8-1.6A19.31,19.31,0,0,1,254,59.9a20.73,20.73,0,0,1-4.25-6.78,23.3,23.3,0,0,1-1.52-8.5,22.58,22.58,0,0,1,1.48-8.16,20.94,20.94,0,0,1,4.14-6.74,19.2,19.2,0,0,1,14.43-6.24,16.31,16.31,0,0,1,12.4,5.22ZM262.88,44.62a9.41,9.41,0,0,0,2.62,6.55,8.53,8.53,0,0,0,2.88,1.95,9.28,9.28,0,0,0,3.63.7,9.07,9.07,0,0,0,3.55-.7,8.67,8.67,0,0,0,2.89-1.95,10.35,10.35,0,0,0,1.95-2.89,8.46,8.46,0,0,0,.74-3.51,8.75,8.75,0,0,0-.74-3.55,10.22,10.22,0,0,0-1.95-2.92,8.67,8.67,0,0,0-2.89-1.95,9.07,9.07,0,0,0-3.55-.7,9.28,9.28,0,0,0-3.63.7,8.53,8.53,0,0,0-2.88,1.95,9.33,9.33,0,0,0-1.91,2.85A8.48,8.48,0,0,0,262.88,44.62Z"/><path d="M193.66,24V63.68a33.33,33.33,0,0,1-.55,6.4,21.87,21.87,0,0,1-1.53,5,15.62,15.62,0,0,1-4.12,5.11,21.88,21.88,0,0,1-6.75,4.11,31.27,31.27,0,0,1-6.34,1.79A48.05,48.05,0,0,1,163.5,87a54.6,54.6,0,0,1-12.08-1.25,38.28,38.28,0,0,1-9.61-3.45,24,24,0,0,1-6.75-5.15c-1.76-2-2-3.07-2.62-5.4h22.4Q156.92,76,164.28,76q6.25,0,9.61-2.66a8.91,8.91,0,0,0,3.35-7.39V61.86A33.82,33.82,0,0,1,173,64.47a27.4,27.4,0,0,1-4.12,1.71,24.41,24.41,0,0,1-4.39.95,39.4,39.4,0,0,1-5.05.29,36.74,36.74,0,0,1-11.09-1.58,27.76,27.76,0,0,1-8.73-4.4,20,20,0,0,1-5.71-6.77,18.79,18.79,0,0,1-2-8.77,19.41,19.41,0,0,1,2.19-9.1,23.68,23.68,0,0,1,6-7.31,28.42,28.42,0,0,1,9-4.9,34.93,34.93,0,0,1,11.37-1.79q10,0,16.8,5.65V24Zm-46.72,21.1a6.8,6.8,0,0,0,1.2,3.87,10.9,10.9,0,0,0,3.28,3.11,17,17,0,0,0,4.94,2.08,24.6,24.6,0,0,0,6.22.75,24.08,24.08,0,0,0,6.09-.75,17,17,0,0,0,4.94-2.08A11.77,11.77,0,0,0,177,48.94a6.45,6.45,0,0,0,1.28-3.79A6.36,6.36,0,0,0,177,41.33a11.82,11.82,0,0,0-3.4-3.07,18,18,0,0,0-5-2.08,23.49,23.49,0,0,0-5.95-.75,22.46,22.46,0,0,0-6,.79,20.06,20.06,0,0,0-4.94,2.08,11.36,11.36,0,0,0-3.41,3A6.23,6.23,0,0,0,146.94,45.07Z"/></g></g></svg>