<svg xmlns="http://www.w3.org/2000/svg" viewBox="0 0 74.11 77"><g id="Capa_2" data-name="Capa 2"><g id="Capa_1-2" data-name="Capa 1"><path d="M74.11,1.4V49a40.41,40.41,0,0,1-.66,7.68,26.63,26.63,0,0,1-1.85,6,18.7,18.7,0,0,1-4.94,6.13,26,26,0,0,1-8.1,4.93A37.69,37.69,0,0,1,51,75.91a58,58,0,0,1-13,1.09,65.28,65.28,0,0,1-14.49-1.5A45.87,45.87,0,0,1,11.9,71.37a29.18,29.18,0,0,1-8.1-6.18C1.69,62.83,1.36,61.5.66,58.71H27.53Q30,63.8,38.86,63.8q7.5,0,11.52-3.19a10.71,10.71,0,0,0,4-8.88V46.85A40.6,40.6,0,0,1,49.33,50a32.6,32.6,0,0,1-4.94,2,29.5,29.5,0,0,1-5.27,1.15,49,49,0,0,1-6.06.35,44.16,44.16,0,0,1-13.3-1.9A33.24,33.24,0,0,1,9.29,46.35a24,24,0,0,1-6.85-8.12A22.58,22.58,0,0,1,0,27.71,23.22,23.22,0,0,1,2.63,16.8,28.36,28.36,0,0,1,9.81,8a34.39,34.39,0,0,1,10.8-5.88A42.08,42.08,0,0,1,34.25,0q12,0,20.15,6.78V1.4ZM18.05,26.71a8.08,8.08,0,0,0,1.45,4.64,13.32,13.32,0,0,0,3.93,3.74,20.48,20.48,0,0,0,5.93,2.49,29.5,29.5,0,0,0,7.46.9,28.8,28.8,0,0,0,7.3-.9,20.6,20.6,0,0,0,5.93-2.49,14.44,14.44,0,0,0,4-3.74,7.68,7.68,0,0,0,1.53-4.54,7.58,7.58,0,0,0-1.53-4.58A14.27,14.27,0,0,0,50,18.54a21.89,21.89,0,0,0-6-2.49,28.17,28.17,0,0,0-7.14-.9,26.64,26.64,0,0,0-7.22,1,24.09,24.09,0,0,0-5.93,2.49,13.59,13.59,0,0,0-4.09,3.64A7.47,7.47,0,0,0,18.05,26.71Z" transform="translate(0)"/></g></g></svg>