<svg xmlns="http://www.w3.org/2000/svg" xmlns:xlink="http://www.w3.org/1999/xlink" viewBox="0 0 75.11 78"><defs><style>.cls-1{fill:none;}.cls-2{fill:#97ff33;}.cls-3{stroke-miterlimit:10;fill:url(#Nueva_muestra_de_motivo_1);stroke:url(#Nueva_muestra_de_motivo_1);}</style><pattern id="Nueva_muestra_de_motivo_1" data-name="Nueva muestra de motivo 1" width="55.18" height="58.19" patternUnits="userSpaceOnUse" viewBox="0 0 55.18 58.19"><rect class="cls-1" width="55.18" height="58.19"/><rect class="cls-2" width="55.18" height="58.19"/></pattern></defs><g id="Capa_2" data-name="Capa 2"><g id="Capa_1-2" data-name="Capa 1"><path class="cls-3" d="M74.61,1.9V49.54A40.41,40.41,0,0,1,74,57.22a26.63,26.63,0,0,1-1.85,6,18.57,18.57,0,0,1-4.94,6.13,26.15,26.15,0,0,1-8.1,4.93,37.69,37.69,0,0,1-7.6,2.15,58,58,0,0,1-13,1.09A65.28,65.28,0,0,1,23.93,76,45.73,45.73,0,0,1,12.4,71.87a29.18,29.18,0,0,1-8.1-6.18C2.19,63.33,1.86,62,1.16,59.21H28q2.5,5.09,11.33,5.09,7.5,0,11.52-3.19a10.71,10.71,0,0,0,4-8.88V47.35a40.6,40.6,0,0,1-5.07,3.14,32.6,32.6,0,0,1-4.94,2,29.5,29.5,0,0,1-5.27,1.15,49,49,0,0,1-6.06.35,44.16,44.16,0,0,1-13.3-1.9A33.24,33.24,0,0,1,9.79,46.85a24,24,0,0,1-6.85-8.12A22.58,22.58,0,0,1,.5,28.21,23.22,23.22,0,0,1,3.13,17.3a28.36,28.36,0,0,1,7.18-8.78,34.39,34.39,0,0,1,10.8-5.88A41.81,41.81,0,0,1,34.75.5q12,0,20.15,6.78V1.9ZM18.55,27.21A8.08,8.08,0,0,0,20,31.85a13.2,13.2,0,0,0,3.93,3.74,20.48,20.48,0,0,0,5.93,2.49,29.5,29.5,0,0,0,7.46.9,28.8,28.8,0,0,0,7.3-.9,20.6,20.6,0,0,0,5.93-2.49,14.44,14.44,0,0,0,4-3.74,7.68,7.68,0,0,0,1.53-4.54,7.58,7.58,0,0,0-1.53-4.58A14.14,14.14,0,0,0,50.47,19a21.89,21.89,0,0,0-6-2.49,28.17,28.17,0,0,0-7.14-.9,26.64,26.64,0,0,0-7.22,1,24.09,24.09,0,0,0-5.93,2.49,13.59,13.59,0,0,0-4.09,3.64A7.44,7.44,0,0,0,18.55,27.21Z"/></g></g></svg>